HIERARCHY
ROOT hip
{
	OFFSET 0.000000 0.000000 0.000000 
	CHANNELS 6 Xposition Yposition Zposition Xrotation Zrotation Yrotation
	JOINT abdomen
	{
		OFFSET 0.000000 3.402643 0.000000 
		CHANNELS 3 Xrotation Zrotation Yrotation
		JOINT chest
		{
			OFFSET 0.000000 8.438565 -0.680529 
			CHANNELS 3 Xrotation Zrotation Yrotation
			JOINT neck
			{
				OFFSET 0.000000 10.207942 -0.272212 
				CHANNELS 3 Xrotation Zrotation Yrotation
				JOINT head
				{
					OFFSET 0.000000 3.130431 0.000000 
					CHANNELS 3 Xrotation Zrotation Yrotation
					End Site
					{
						OFFSET 0.000000 3.130435 0.000000 
					}
				}
			}
			JOINT lCollar
			{
				OFFSET 3.470700 6.669187 -0.816635 
				CHANNELS 3 Yrotation Zrotation Xrotation
				JOINT lShldr
				{
					OFFSET 3.198488 0.000000 0.000000 
					CHANNELS 3 Zrotation Yrotation Xrotation
					JOINT lForeArm
					{
						OFFSET 10.139888 0.000000 0.000000 
						CHANNELS 3 Yrotation Zrotation Xrotation
						JOINT lHand
						{
							OFFSET 8.370511 0.000000 0.000000 
							CHANNELS 3 Zrotation Yrotation Xrotation
							End Site
							{
								OFFSET 4.083176 0.000000 0.000000 
							}
						}
					}
				}
			}
			JOINT rCollar
			{
				OFFSET -3.470700 6.669187 -0.816635 
				CHANNELS 3 Yrotation Zrotation Xrotation
				JOINT rShldr
				{
					OFFSET -3.198488 0.000000 0.000000 
					CHANNELS 3 Zrotation Yrotation Xrotation
					JOINT rForeArm
					{
						OFFSET -10.139888 0.000000 0.000000 
						CHANNELS 3 Yrotation Zrotation Xrotation
						JOINT rHand
						{
							OFFSET -8.370511 0.000000 0.000000 
							CHANNELS 3 Zrotation Yrotation Xrotation
							End Site
							{
								OFFSET -4.083176 0.000000 0.000000 
							}
						}
					}
				}
			}
		}
	}
	JOINT lThigh
	{
		OFFSET 5.308129 -1.633274 1.361059 
		CHANNELS 3 Xrotation Zrotation Yrotation
		JOINT lShin
		{
			OFFSET -2.041588 -20.007561 0.000000 
			CHANNELS 3 Xrotation Zrotation Yrotation
			JOINT lFoot
			{
				OFFSET 0.000000 -19.190928 -1.224953 
				CHANNELS 3 Xrotation Yrotation Zrotation
				End Site
				{
					OFFSET 0.000000 -2.449906 4.627600 
				}
			}
		}
	}
	JOINT rThigh
	{
		OFFSET -5.308129 -1.633274 1.361059 
		CHANNELS 3 Xrotation Zrotation Yrotation
		JOINT rShin
		{
			OFFSET 2.041588 -20.007561 0.000000 
			CHANNELS 3 Xrotation Zrotation Yrotation
			JOINT rFoot
			{
				OFFSET 0.000000 -19.190928 -1.224953 
				CHANNELS 3 Xrotation Yrotation Zrotation
				End Site
				{
					OFFSET 0.000000 -2.449906 4.627600 
				}
			}
		}
	}
}
MOTION
Frames: 8
Frame Time: 0.016667
-0.456841 42.766758 -0.933689 4.453690 -0.915197 0.035995 -23.693701 1.603630 1.777500 13.752700 2.608480 0.988036 7.687570 2.728950 -3.575240 8.766520 5.722520 -1.486930 2.000000 -2.000000 0.000000 94.151703 -179.882004 7.861620 24.863600 -0.338892 0.057544 0.048470 0.025121 -124.362999 -2.000000 2.000000 0.000000 -99.812599 -170.315994 2.455840 -34.775799 0.327146 0.077982 -0.055573 0.019369 -143.854996 -15.189842 0.593455 -7.211013 32.214134 2.708766 2.366626 -16.603296 9.668611 3.628275 -17.045464 1.594029 7.385023 37.402206 -2.422803 -2.735892 -16.151031 -12.025580 -4.336192 
-0.464637 42.758400 -0.938834 4.424340 -0.866551 0.001174 -23.674200 1.603750 1.777770 13.723200 2.627710 0.984384 7.668610 2.718920 -3.588450 8.766420 5.712790 -1.497500 2.000000 -2.000000 0.000000 94.161499 -179.843002 7.871470 24.873301 -0.338883 0.057565 0.048476 0.025147 -124.352997 -2.000000 2.000000 0.000000 -99.822403 -170.462997 2.407380 -34.697601 0.327252 0.077828 -0.055573 0.019369 -143.854996 -15.166941 0.552224 -7.160812 32.225071 2.698663 2.373413 -16.615326 9.689604 3.629817 -17.069836 1.547796 7.377588 37.481003 -2.426975 -2.755568 -16.171381 -11.984683 -4.315896 
-0.472749 42.753265 -0.941688 4.404750 -0.817890 -0.024070 -23.635201 1.612930 1.774410 13.742700 2.637520 0.984123 7.592050 2.757510 -3.611460 8.737180 5.732550 -1.508580 2.000000 -2.000000 0.000000 94.151703 -179.783997 7.871600 24.873301 -0.338883 0.057565 0.048476 0.025147 -124.352997 -2.000000 2.000000 0.000000 -99.851700 -170.511993 2.329380 -34.707401 0.327239 0.077847 -0.055560 0.019261 -143.815994 -15.143841 0.524723 -7.111593 32.223816 2.710386 2.366880 -16.638655 9.688702 3.631087 -17.129578 1.522494 7.344993 37.599380 -2.415176 -2.759175 -16.190350 -11.926098 -4.296893 
-0.482315 42.747356 -0.943406 4.375420 -0.788711 -0.060474 -23.606001 1.622060 1.770920 13.752400 2.656960 0.982263 7.455600 2.681430 -3.646680 8.678000 5.703960 -1.526570 2.000000 -2.000000 0.000000 94.122398 -179.725998 7.842430 24.873301 -0.338883 0.057565 0.048452 0.025041 -124.391998 -2.000000 2.000000 0.000000 -99.880997 -170.561005 2.290440 -34.697601 0.327252 0.077828 -0.055550 0.019179 -143.787003 -15.110845 0.517926 -7.064715 32.311722 2.713687 2.366374 -16.713072 9.682594 3.625025 -17.103548 1.499111 7.359327 37.629009 -2.417122 -2.768973 -16.233704 -11.894603 -4.308075 
-0.493795 42.742214 -0.951394 4.355850 -0.759519 -0.067741 -23.606300 1.624160 1.748720 13.723000 2.666500 0.979746 7.495660 2.747990 -3.643150 8.688010 5.723320 -1.524020 2.000000 -2.000000 0.000000 94.141899 -179.697006 7.891320 24.853800 -0.338902 0.057523 0.048428 0.024934 -124.431999 -2.000000 2.000000 0.000000 -99.910301 -170.531998 2.300130 -34.736698 0.327199 0.077905 -0.055556 0.019234 -143.807007 -15.118352 0.506668 -7.034096 32.322449 2.711661 2.385068 -16.687511 9.665036 3.622970 -17.192665 1.472353 7.324740 37.765911 -2.417401 -2.766386 -16.264675 -11.866944 -4.307305 
-0.507389 42.737080 -0.961672 4.365570 -0.710823 -0.054381 -23.606600 1.617300 1.730430 13.693700 2.676030 0.967453 7.525240 2.795970 -3.633480 8.697930 5.732960 -1.522250 2.000000 -2.000000 0.000000 94.161499 -179.667007 8.008580 24.844000 -0.338912 0.057501 0.048405 0.024827 -124.471001 -2.000000 2.000000 0.000000 -99.959099 -170.414001 2.329130 -34.853901 0.327040 0.078134 -0.055566 0.019315 -143.835999 -15.138745 0.476531 -7.040133 32.302616 2.709742 2.375144 -16.651300 9.672236 3.613311 -17.195799 1.431948 7.308676 37.805969 -2.407146 -2.772010 -16.338530 -11.869898 -4.308189 
-0.521781 42.730518 -0.968806 4.375290 -0.662127 -0.041003 -23.548599 1.621870 1.686910 13.742300 2.715090 0.935811 7.554690 2.727120 -3.648870 8.736980 5.713090 -1.519950 2.000000 -2.000000 0.000000 94.151703 -179.520996 8.018670 24.853800 -0.338902 0.057523 0.048393 0.024774 -124.489998 -2.000000 2.000000 0.000000 -99.988503 -170.628998 2.329670 -34.746498 0.327186 0.077924 -0.055550 0.019179 -143.787003 -15.167295 0.438119 -7.025460 32.322910 2.705516 2.383368 -16.618332 9.648323 3.606545 -17.257536 1.377830 7.269249 37.914185 -2.409544 -2.790091 -16.373131 -11.837286 -4.304380 
-0.539914 42.722813 -0.977097 4.355750 -0.652407 -0.059566 -23.539101 1.636410 1.670110 13.713000 2.714920 0.934424 7.534320 2.786780 -3.623930 8.727470 5.742390 -1.508760 2.000000 -2.000000 0.000000 -85.818901 -0.488506 -171.884003 24.892900 -0.338863 0.057607 0.048364 0.024640 -124.539001 -2.000000 2.000000 0.000000 -100.008003 -170.707001 2.339640 -34.687901 0.327266 0.077809 -0.055550 0.019179 -143.787003 -15.164975 0.448387 -6.997097 32.330742 2.721419 2.368137 -16.638208 9.630823 3.609821 -17.285690 1.389677 7.265567 37.983189 -2.399267 -2.785422 -16.422655 -11.812860 -4.318928 
